<?xml version="1.0" encoding="utf-8"?>
<!-- Generator: Adobe Illustrator 21.1.0, SVG Export Plug-In . SVG Version: 6.00 Build 0)  -->
<svg version="1.1" id="Layer_1" xmlns="http://www.w3.org/2000/svg" xmlns:xlink="http://www.w3.org/1999/xlink" x="0px" y="0px"
	 viewBox="0 0 256 128" style="enable-background:new 0 0 256 128;" xml:space="preserve">
<style type="text/css">
	.st0{fill:#FFCB01;}
	.st1{fill:#B3B3B3;}
	.st2{fill:#D80613;}
</style>
<g>
	<g>
		<rect x="0.7" y="0.8" class="st0" width="254.9" height="126.9"/>
		<path class="st1" d="M1.2,1.2l253.9,0.1l-0.1,125.9L1.1,127.1L1.2,1.2 M0.2,0.2L0.1,128.1l255.9,0.1l0.1-127.9L0.2,0.2L0.2,0.2z"
			/>
	</g>
	<g>
		<path class="st2" d="M45.7,46.4l-8.1,11l44.2,0c2.2,0,2.2,0.8,1.1,2.3c-1.1,1.5-3,4.1-4.1,5.6c-0.6,0.8-1.6,2.2,1.8,2.2l18.1,0
			l5.4-7.3c3.3-4.5,0.3-13.9-11.6-13.9L45.7,46.4L45.7,46.4z"/>
		<path class="st2" d="M34.2,82.3l16.3-22.1l20.2,0c2.2,0,2.2,0.8,1.1,2.3l-4.1,5.6c-0.6,0.8-1.6,2.2,1.8,2.2l27.1,0
			c-2.2,3.1-9.6,12-22.7,12L34.2,82.3z M127.6,70.3l-8.8,12l-23.3,0l8.8-12L127.6,70.3z M163.3,67.6l-57,0l15.6-21.2l23.3,0
			l-8.9,12.1l10.4,0l9-12.1l23.3,0L163.3,67.6z M161.3,70.3l-8.8,12l-23.3,0l8.8-12L161.3,70.3z M1,75l34.3,0l-1.9,2.5L1,77.5L1,75z
			 M1,70.2l37.8,0l-1.9,2.5l-36,0L1,70.2z M1,79.7l30.9,0L30,82.3l-29,0L1,79.7z M255,77.6l-34.2,0l1.9-2.5l32.3,0L255,77.6z
			 M255,82.4l-37.7,0l1.9-2.5l35.8,0L255,82.4z M226.1,70.3l28.9,0l0,2.6l-30.7,0L226.1,70.3z M211.2,46.5l-15.6,21.2l-24.7,0
			l15.6-21.2L211.2,46.5z M168.9,70.3c0,0-1.7,2.3-2.5,3.4c-2.9,4-0.3,8.6,9.2,8.6l37.4,0l8.8-12L168.9,70.3L168.9,70.3z"/>
	</g>
</g>
</svg>
