<?xml version="1.0" encoding="utf-8"?>
<!-- Generator: Adobe Illustrator 21.1.0, SVG Export Plug-In . SVG Version: 6.00 Build 0)  -->
<svg version="1.1" id="Layer_1" xmlns="http://www.w3.org/2000/svg" xmlns:xlink="http://www.w3.org/1999/xlink" x="0px" y="0px"
	 viewBox="0 0 256 128" style="enable-background:new 0 0 256 128;" xml:space="preserve">
<style type="text/css">
	.st0{fill:#FFFFFF;}
	.st1{fill:#999999;}
	.st2{fill:#FF6633;}
	.st3{fill:#43338E;}
</style>
<g>
	<g>
		<g>
			<rect x="0.5" y="0.6" class="st0" width="255" height="127"/>
			<path class="st1" d="M255,1.1v126H1V1.1H255 M256,0.1H0v128h256V0.1L256,0.1z"/>
		</g>
	</g>
	<g>
		<path class="st2" d="M205.3,90.9l-7.7-8.6l-7.6,8.6H174l15.7-17.6L174,55.6h16.6l7.8,8.6l7.5-8.6h16l-15.6,17.6L222,90.9
			L205.3,90.9L205.3,90.9z M143.1,90.9V35.3H174v12.4h-17.8v7.9H174v11.9h-17.8v10.9H174v12.4L143.1,90.9L143.1,90.9z"/>
		<path class="st3" d="M130.1,35.3v22.7h-0.1c-2.9-3.3-6.5-4.5-10.7-4.5c-8.6,0-15,5.8-17.3,13.5c-2.6-8.5-9.2-13.7-19.1-13.7
			c-8,0-14.3,3.6-17.6,9.5v-7.3H48.7v-7.9h18.1V35.3H34v55.6h14.8V67.5h14.7c-0.5,1.8-0.7,3.6-0.7,5.5c0,11.6,8.9,19.7,20.2,19.7
			c9.5,0,15.8-4.5,19.1-12.6H89.4c-1.7,2.4-3,3.2-6.4,3.2c-4,0-7.4-3.5-7.4-7.6h25.8c1.1,9.2,8.3,17.1,18.1,17.1
			c4.2,0,8.1-2.1,10.5-5.6h0.1v3.6h13V35.3H130.1z M76,67.7c0.8-3.5,3.6-5.8,7-5.8c3.8,0,6.4,2.2,7,5.8H76L76,67.7z M122.2,82.4
			c-4.8,0-7.8-4.5-7.8-9.1c0-5,2.6-9.8,7.8-9.8c5.4,0,7.5,4.8,7.5,9.8C129.7,78,127.4,82.4,122.2,82.4z"/>
	</g>
</g>
</svg>
